# xmcd
#
# Track frame offsets:
#	150
#	15072
#	32119
#	50630
#	85906
#
# Disc length: 1437 seconds
#
# Revision: 2
# Processed by: cddbd v1.5.2PL0 Copyright (c) Steve Scherf et al.
# Submitted via: audiograbber 1.83.01
#
DISCID=2f059b05
DTITLE=Sophie Ellis Bextor - Get Over You [EP]
DYEAR=2002
DGENRE=Pop
TTITLE0=Get Over You (Single Mix)
TTITLE1=Move This Mountain (Radio Edit)
TTITLE2=Live It Up (Acoustic Version)
TTITLE3=Get Over You (Max Reich Vocal Mix)
TTITLE4=Murder On The Dancefloor (Jewels and Stone Mix Edit)
EXTD=
EXTT0=
EXTT1=
EXTT2=
EXTT3=
EXTT4=
PLAYORDER=
